<?xml version="1.0" encoding="UTF-8" standalone="no"?>
<!-- Created with Inkscape (http://www.inkscape.org/) -->

<svg
   width="646.89148mm"
   height="400.13434mm"
   viewBox="0 0 646.89148 400.13434"
   version="1.1"
   id="svg1"
   xml:space="preserve"
   inkscape:version="1.3 (0e150ed6c4, 2023-07-21)"
   sodipodi:docname="drawing.svg"
   inkscape:export-filename="drawing.png"
   inkscape:export-xdpi="96"
   inkscape:export-ydpi="96"
   xmlns:inkscape="http://www.inkscape.org/namespaces/inkscape"
   xmlns:sodipodi="http://sodipodi.sourceforge.net/DTD/sodipodi-0.dtd"
   xmlns:xlink="http://www.w3.org/1999/xlink"
   xmlns="http://www.w3.org/2000/svg"
   xmlns:svg="http://www.w3.org/2000/svg"><sodipodi:namedview
     id="namedview1"
     pagecolor="#ffffff"
     bordercolor="#000000"
     borderopacity="0.25"
     inkscape:showpageshadow="2"
     inkscape:pageopacity="0.0"
     inkscape:pagecheckerboard="0"
     inkscape:deskcolor="#d1d1d1"
     inkscape:document-units="mm"
     inkscape:zoom="0.48835471"
     inkscape:cx="931.69983"
     inkscape:cy="783.24217"
     inkscape:window-width="1920"
     inkscape:window-height="1129"
     inkscape:window-x="1912"
     inkscape:window-y="-8"
     inkscape:window-maximized="1"
     inkscape:current-layer="layer1"
     showgrid="false"><inkscape:grid
       id="grid23"
       units="mm"
       originx="0"
       originy="0"
       spacingx="1"
       spacingy="1"
       empcolor="#0099e5"
       empopacity="0.30196078"
       color="#0099e5"
       opacity="0.14901961"
       empspacing="5"
       dotted="false"
       gridanglex="30"
       gridanglez="30"
       visible="false" /></sodipodi:namedview><defs
     id="defs1"><marker
       style="overflow:visible"
       id="Triangle"
       refX="0"
       refY="0"
       orient="auto-start-reverse"
       inkscape:stockid="Triangle arrow"
       markerWidth="1"
       markerHeight="1"
       viewBox="0 0 1 1"
       inkscape:isstock="true"
       inkscape:collect="always"
       preserveAspectRatio="xMidYMid"><path
         transform="scale(0.5)"
         style="fill:context-stroke;fill-rule:evenodd;stroke:context-stroke;stroke-width:1pt"
         d="M 5.77,0 -2.88,5 V -5 Z"
         id="path135" /></marker><clipPath
       clipPathUnits="userSpaceOnUse"
       id="clipPath22"><rect
         style="opacity:1;fill:none;stroke:#0e232e;stroke-width:0.499996;stroke-linecap:butt;stroke-linejoin:round;stroke-dasharray:1.5, 1.5;stroke-dashoffset:0"
         id="rect23"
         width="318.05075"
         height="400.13437"
         x="-90.442093"
         y="58.915253" /></clipPath></defs><g
     inkscape:label="Layer 1"
     inkscape:groupmode="layer"
     id="layer1"
     transform="translate(90.442093,-58.915253)"><image
       width="423.33334"
       height="423.33334"
       preserveAspectRatio="none"
       xlink:href="model.png"
       id="image1"
       x="-142.82692"
       y="35.716259"
       clip-path="url(#clipPath22)"
       sodipodi:insensitive="true" /><circle
       style="fill:#0084c8;stroke:none;stroke-width:1;stroke-linecap:round;stroke-linejoin:round;stroke-dasharray:none;opacity:1"
       id="path1"
       cx="412.79993"
       cy="330.99057"
       r="51.62376" /><circle
       style="fill:none;stroke:#ff0000;stroke-width:0.999997;stroke-linecap:round;stroke-linejoin:round;stroke-dasharray:none;opacity:0.25"
       id="circle1"
       cx="412.79993"
       cy="330.99057"
       r="28.752474" /><circle
       style="fill:none;stroke:#ff0000;stroke-width:0.999997;stroke-linecap:round;stroke-linejoin:round;stroke-dasharray:none;opacity:0.25"
       id="circle2"
       cx="412.79993"
       cy="330.9906"
       r="46.311127" /><path
       style="fill:none;stroke:#ff0000;stroke-width:1;stroke-linecap:round;stroke-linejoin:round;stroke-dasharray:none;opacity:0.5"
       d="m 474.88008,230.35704 -76.45543,-0.65347 -10.12873,5.88119 -25.81187,22.21781 h -66 l -8.16832,-4.24751 v -51.9505 l 5.55445,-8.49505 v -7.84158 l 7.84159,-0.32673 6.20792,-4.57426 3.26734,-8.82178 18.29702,-62.73268 h 4.57425 l 3.59407,-7.18811 2.28711,-1.960397 h 71.88121 l 2.61384,0.980197 0.98021,1.96039 v 4.57426 h 60.11881 v 119.91089 z"
       id="path2" /><path
       style="fill:none;stroke:#ff0000;stroke-width:1;stroke-linecap:round;stroke-linejoin:round;stroke-dasharray:none;opacity:0.25"
       d="m 415.25138,223.65902 h -25.15843 l -6.20792,1.63366 -4.4109,2.28713 -1.14355,0.4901 -25.48514,23.19801 -2.28714,1.30693 -3.26732,1.14359 h -34.9604 v -53.58417 l 1.79703,-14.37624 4.90098,-23.03466 14.53962,-49.17326 15.02971,-10.61881 h 58.97523 l 7.02476,11.10891 c 0,0 0,30.22277 0,44.76237 0,14.53961 0.65347,64.85644 0.65347,64.85644 z"
       id="path3" /><path
       style="fill:none;stroke:#ff0000;stroke-width:1;stroke-linecap:round;stroke-linejoin:round;stroke-dasharray:none;opacity:0.25"
       d="m 330.13752,195.06991 h 17.64355 l 52.60396,-28.75248 3.9208,-8.49504 V 118.9412 l -4.24754,-5.55446 h -58.81187 l -16.00991,56.85149 v 20.58416 z"
       id="path4" /><path
       style="fill:none;stroke:#ff6600;stroke-width:10;stroke-linecap:round;stroke-linejoin:round;stroke-dasharray:none;opacity:0.5"
       d="M 412.47416,330.66398 V 247.67387"
       id="path5"
       sodipodi:nodetypes="cc" /><path
       style="fill:#9ade00;stroke:none;stroke-width:1;stroke-linecap:round;stroke-linejoin:round;stroke-dasharray:none"
       d="m 455.27612,118.61446 v 88.21783 l -11.43564,11.76237 h -65.01979 l -9.47526,6.20792 h -7.18812 l -3.59404,-4.90099 v -7.84158 l 9.47523,-8.49505 8.16832,-2.9406 h 7.18812 l 1.63367,2.28713 h 46.39604 l 9.47523,-2.61386 v -4.90099 l -3.26731,-2.28713 v -65.67326 l 4.24751,-4.57426 v -4.57426 l 3.26734,-1.9604 h 6.53465 z"
       id="path6" /><path
       style="fill:#ff6600;stroke:#ff0000;stroke-width:1;stroke-linecap:round;stroke-linejoin:round;stroke-dasharray:none;opacity:1"
       d="m 475.86028,318.24811 -2.94058,-22.54453 -8.82179,-18.95049 -17.64358,-16.33665 -15.35642,-8.82179 -18.62375,-3.92078 -14.37624,2.94058 -19.60396,9.80199 -12.08913,9.80199 -8.1683,19.9307 -1.9604,7.84156 -6.53465,3.26734 -26.13861,0.9802 -5.88119,-4.57428 h -32.67329 l -15.02968,-11.43563 v -25.81188 h 93.44554 l 26.05693,-22.7896 9.2302,-4.98268 h 13.80445 72.12624 v 84.78713 l -2.45049,4.57425 -3.92081,-0.32673 z"
       id="path7" /><path
       style="fill:#ff6600;stroke:#ff0000;stroke-width:1;stroke-linecap:round;stroke-linejoin:round;stroke-dasharray:none"
       d="M 532.40993,295.16497 H 482.23158 V 254.96489 H 547.4272 Z"
       id="path8"
       sodipodi:nodetypes="ccccc" /><path
       style="opacity:1;fill:#9ade00;stroke:#ba00ff;stroke-width:5;stroke-linecap:round;stroke-linejoin:round;stroke-dasharray:none"
       d="M 269.36524,383.59467 H 553.94938"
       id="path9" /><path
       style="opacity:1;fill:#9ade00;stroke:#ffc022;stroke-width:2;stroke-linecap:round;stroke-linejoin:round;stroke-dasharray:none;marker-end:url(#Triangle)"
       d="m 425.55386,243.41314 0,-24.81848"
       id="path10"
       sodipodi:nodetypes="cc" /><path
       style="opacity:1;fill:#9ade00;stroke:#ffc022;stroke-width:2;stroke-linecap:round;stroke-linejoin:round;stroke-dasharray:none;marker-end:url(#Triangle)"
       d="m 437.1956,243.41314 0,-24.81848"
       id="path11"
       sodipodi:nodetypes="cc" /><path
       style="opacity:1;fill:#9ade00;stroke:#ffc022;stroke-width:2;stroke-linecap:round;stroke-linejoin:round;stroke-dasharray:none;marker-end:url(#Triangle)"
       d="m 448.83734,243.41314 0,-24.81848"
       id="path12"
       sodipodi:nodetypes="cc" /><path
       style="opacity:1;fill:#9ade00;stroke:#ba00ff;stroke-width:2;stroke-linecap:butt;stroke-linejoin:round;stroke-dasharray:none"
       d="M 218.50601,399.14303 V 369.08362"
       id="path13" /><path
       style="opacity:1;fill:#9ade00;stroke:#0084c8;stroke-width:2;stroke-linecap:butt;stroke-linejoin:round;stroke-dasharray:none"
       d="M 218.50601,348.34271 V 318.2833"
       id="path14" /><path
       style="opacity:1;fill:#9ade00;stroke:#ff6600;stroke-width:2;stroke-linecap:butt;stroke-linejoin:round;stroke-dasharray:none"
       d="M 218.50601,294.36737 V 264.30796"
       id="path15" /><path
       style="opacity:1;fill:#9ade00;stroke:#9ade00;stroke-width:2;stroke-linecap:butt;stroke-linejoin:round;stroke-dasharray:none"
       d="M 218.50601,245.15456 V 215.09515"
       id="path16" /><path
       style="opacity:1;fill:#9ade00;stroke:#ffc022;stroke-width:2;stroke-linecap:butt;stroke-linejoin:round;stroke-dasharray:none"
       d="M 218.50601,154.13732 V 124.07791"
       id="path17" /><path
       style="opacity:1;fill:#9ade00;stroke:#0e232e;stroke-width:0.5;stroke-linecap:butt;stroke-linejoin:round;stroke-dasharray:1.5, 1.5;stroke-dashoffset:0"
       d="M 269.36522,383.59466 H 218.50601"
       id="path18" /><path
       style="opacity:1;fill:#9ade00;stroke:#0e232e;stroke-width:0.5;stroke-linecap:butt;stroke-linejoin:round;stroke-dasharray:1.5, 1.5;stroke-dashoffset:0"
       d="M 361.22891,333.32351 H 218.50601"
       id="path19"
       sodipodi:nodetypes="cc" /><path
       style="opacity:1;fill:#9ade00;stroke:#0e232e;stroke-width:0.5;stroke-linecap:butt;stroke-linejoin:round;stroke-dasharray:1.5, 1.5;stroke-dashoffset:0"
       d="M 361.22891,333.32351 H 218.50601"
       id="path20"
       sodipodi:nodetypes="cc" /><path
       style="opacity:1;fill:none;stroke:#0e232e;stroke-width:0.5;stroke-linecap:butt;stroke-linejoin:round;stroke-dasharray:1.5, 1.5;stroke-dashoffset:0"
       d="m 270.01871,278.819 h -51.5127 M 373.02473,213.89341 329.14167,225.425 H 218.71865"
       id="path21"
       sodipodi:nodetypes="ccccc" /><path
       style="opacity:1;fill:none;stroke:#0e232e;stroke-width:0.5;stroke-linecap:butt;stroke-linejoin:round;stroke-dasharray:1.5, 1.5;stroke-dashoffset:0"
       d="M 425.55386,227.12518 345.54583,139.10761 H 218.50601"
       id="path22"
       sodipodi:nodetypes="ccc" /><path
       style="opacity:1;fill:none;stroke:#ff6600;stroke-width:2;stroke-linecap:butt;stroke-linejoin:miter;stroke-dasharray:none;stroke-dashoffset:0"
       d="m 419.55789,253.91524 -20.00002,15.00001 25.00001,14.99999 -25.00001,15 25.00001,15"
       id="path27" /><path
       style="opacity:0.5;fill:none;stroke:#9ade00;stroke-width:5;stroke-linecap:butt;stroke-linejoin:miter;stroke-dasharray:none;stroke-dashoffset:0"
       d="m 404.55789,213.91525 v 20"
       id="path28" /><path
       style="opacity:1;fill:none;stroke:#9ade00;stroke-width:1;stroke-linecap:butt;stroke-linejoin:miter;stroke-dasharray:none;stroke-dashoffset:0"
       d="m 412.55788,218.2694 -18,4 20.00002,6 -20.00002,5"
       id="path29" /></g></svg>
